<?xml version="1.0" standalone="no"?>
<svg xmlns:xlink="http://www.w3.org/1999/xlink" id="wave" style="transform:rotate(180deg); transition: 0.3s" viewBox="0 0 1440 150" version="1.1" xmlns="http://www.w3.org/2000/svg"><defs><linearGradient id="sw-gradient-0" x1="0" x2="0" y1="1" y2="0"><stop stop-color="rgba(212, 212, 212, 1)" offset="0%"/><stop stop-color="rgba(212, 212, 212, 1)" offset="100%"/></linearGradient></defs><path style="transform:translate(0, 0px); opacity:1" fill="url(#sw-gradient-0)" d="M0,15L60,17.5C120,20,240,25,360,22.5C480,20,600,10,720,22.5C840,35,960,70,1080,75C1200,80,1320,55,1440,42.5C1560,30,1680,30,1800,37.5C1920,45,2040,60,2160,60C2280,60,2400,45,2520,45C2640,45,2760,60,2880,72.5C3000,85,3120,95,3240,102.5C3360,110,3480,115,3600,115C3720,115,3840,110,3960,112.5C4080,115,4200,125,4320,107.5C4440,90,4560,45,4680,32.5C4800,20,4920,40,5040,62.5C5160,85,5280,110,5400,105C5520,100,5640,65,5760,65C5880,65,6000,100,6120,97.5C6240,95,6360,55,6480,47.5C6600,40,6720,65,6840,82.5C6960,100,7080,110,7200,115C7320,120,7440,120,7560,120C7680,120,7800,120,7920,110C8040,100,8160,80,8280,67.5C8400,55,8520,50,8580,47.5L8640,45L8640,150L8580,150C8520,150,8400,150,8280,150C8160,150,8040,150,7920,150C7800,150,7680,150,7560,150C7440,150,7320,150,7200,150C7080,150,6960,150,6840,150C6720,150,6600,150,6480,150C6360,150,6240,150,6120,150C6000,150,5880,150,5760,150C5640,150,5520,150,5400,150C5280,150,5160,150,5040,150C4920,150,4800,150,4680,150C4560,150,4440,150,4320,150C4200,150,4080,150,3960,150C3840,150,3720,150,3600,150C3480,150,3360,150,3240,150C3120,150,3000,150,2880,150C2760,150,2640,150,2520,150C2400,150,2280,150,2160,150C2040,150,1920,150,1800,150C1680,150,1560,150,1440,150C1320,150,1200,150,1080,150C960,150,840,150,720,150C600,150,480,150,360,150C240,150,120,150,60,150L0,150Z"/></svg>